<?xml version="1.0" encoding="UTF-8" standalone="no"?><!-- Generator: Gravit.io --><svg xmlns="http://www.w3.org/2000/svg" xmlns:xlink="http://www.w3.org/1999/xlink" style="isolation:isolate" viewBox="0 0 61 60" width="61pt" height="60pt"><defs><clipPath id="_clipPath_3kmMThOebyQMAKaKqgFUEVwf0nsIbcGB"><rect width="61" height="60"/></clipPath></defs><g clip-path="url(#_clipPath_3kmMThOebyQMAKaKqgFUEVwf0nsIbcGB)"><g><circle vector-effect="non-scaling-stroke" cx="30.5" cy="30.000000000000004" r="29.5" fill="rgb(154,196,81)"/><mask id="_mask_c9xBMkZDlBECNPXevEwX9homtpffpABu" x="-200%" y="-200%" width="400%" height="400%"><rect x="-200%" y="-200%" width="400%" height="400%" style="fill:white;"/><line x1="37" y1="12.5" x2="33" y2="18.5" fill="black" stroke="none"/></mask><line x1="37" y1="12.5" x2="33" y2="18.5" mask="url(#_mask_c9xBMkZDlBECNPXevEwX9homtpffpABu)" vector-effect="non-scaling-stroke" stroke-width="2" stroke="rgb(255,255,255)" stroke-opacity="100" stroke-linejoin="miter" stroke-linecap="square" stroke-miterlimit="3"/><mask id="_mask_IgtgJjXQUKnG21Ba1ErnBvz1OlRQmQjV" x="-200%" y="-200%" width="400%" height="400%"><rect x="-200%" y="-200%" width="400%" height="400%" style="fill:white;"/><line x1="23" y1="12.5" x2="27" y2="18.5" fill="black" stroke="none"/></mask><line x1="23" y1="12.5" x2="27" y2="18.5" mask="url(#_mask_IgtgJjXQUKnG21Ba1ErnBvz1OlRQmQjV)" vector-effect="non-scaling-stroke" stroke-width="2" stroke="rgb(255,255,255)" stroke-opacity="100" stroke-linejoin="miter" stroke-linecap="square" stroke-miterlimit="3"/><path d=" M 42 21.5 C 39.417 23.833 36.427 25.51 33 26.5 C 30.595 34.435 31.605 41.778 36 48.5 C 48.5 42.083 50.51 33.093 42 21.5 Z " fill="rgb(255,255,255)"/><path d=" M 27 26.5 C 23.694 26.146 21.048 24.499 19 21.5 C 10.603 32.127 12.28 41.137 24 48.5 C 29.84 41.298 30.85 33.975 27 26.5 Z " fill="rgb(255,255,255)"/><mask id="_mask_WI3PCBThnmrbflatdxTJSRv9AfWaYaqD" x="-200%" y="-200%" width="400%" height="400%"><rect x="-200%" y="-200%" width="400%" height="400%" style="fill:white;"/><path d=" M 22 19.5 C 27.417 24.918 33.093 24.928 39 19.5 C 33.333 15.833 27.677 15.843 22 19.5 Z " fill="black" stroke="none"/></mask><path d=" M 22 19.5 C 27.417 24.918 33.093 24.928 39 19.5 C 33.333 15.833 27.677 15.843 22 19.5 Z " fill="rgb(255,255,255)"/><path d=" M 22 19.5 C 27.417 24.918 33.093 24.928 39 19.5 C 33.333 15.833 27.677 15.843 22 19.5 Z " fill="rgb(255,255,255)" mask="url(#_mask_WI3PCBThnmrbflatdxTJSRv9AfWaYaqD)" vector-effect="non-scaling-stroke" stroke-width="2" stroke="rgb(255,255,255)" stroke-opacity="100" stroke-linejoin="miter" stroke-linecap="square" stroke-miterlimit="3"/></g></g></svg>