<?xml version="1.0" encoding="UTF-8" standalone="no"?><!-- Generator: Gravit.io --><svg xmlns="http://www.w3.org/2000/svg" xmlns:xlink="http://www.w3.org/1999/xlink" style="isolation:isolate" viewBox="0 0 61 60" width="61pt" height="60pt"><defs><clipPath id="_clipPath_A2FxdDheGxDiB4elSuQXyeXfmGE84R8k"><rect width="61" height="60"/></clipPath></defs><g clip-path="url(#_clipPath_A2FxdDheGxDiB4elSuQXyeXfmGE84R8k)"><g><ellipse vector-effect="non-scaling-stroke" cx="30.499999999999996" cy="30" rx="30.000000000000057" ry="29.5" fill="rgb(11,109,195)"/><path d=" M 12.5 37.5 L 25.5 34.5 C 22.3 40.927 23.644 46.27 29.5 50.5 C 20.845 50.321 15.188 45.998 12.5 37.5 Z " fill="rgb(255,255,255)"/><clipPath id="_clipPath_qIdb0npcgu7tptHQiL2CdHLdvcIM9YH6"><path d=" M 12.5 37.5 L 25.5 34.5 C 22.3 40.927 23.644 46.27 29.5 50.5 C 20.845 50.321 15.188 45.998 12.5 37.5 Z " fill="rgb(255,255,255)"/></clipPath><g clip-path="url(#_clipPath_qIdb0npcgu7tptHQiL2CdHLdvcIM9YH6)"><mask id="_mask_MBqs3qmA1qAnJlrU90QRQYnoS72zXk8K"><path d=" M 12.5 37.5 L 25.5 34.5 C 22.3 40.927 23.644 46.27 29.5 50.5 C 20.845 50.321 15.188 45.998 12.5 37.5 Z " fill="white" stroke="none"/></mask><path d=" M 12.5 37.5 L 25.5 34.5 C 22.3 40.927 23.644 46.27 29.5 50.5 C 20.845 50.321 15.188 45.998 12.5 37.5 Z " fill="rgb(255,255,255)"/><path d=" M 12.5 37.5 L 25.5 34.5 C 22.3 40.927 23.644 46.27 29.5 50.5 C 20.845 50.321 15.188 45.998 12.5 37.5 Z " fill="rgb(255,255,255)" mask="url(#_mask_MBqs3qmA1qAnJlrU90QRQYnoS72zXk8K)" vector-effect="non-scaling-stroke" stroke-width="2" stroke="rgb(255,255,255)" stroke-opacity="100" stroke-linejoin="miter" stroke-linecap="square" stroke-miterlimit="3"/></g><path d=" M 11.5 33.5 L 17.5 23.5 C 23.583 20.083 28.927 15.427 33.5 9.5 C 33.67 12.519 32.68 15.196 30.5 17.5 C 39.313 16.813 47.547 23.809 48.5 33.5 C 49.095 40.903 44.439 46.58 36.5 50.5 L 28.5 43.5 C 32.577 44.019 37 39.625 37.5 35.5 C 37.75 31.5 35.063 29.875 32.5 28.5 C 24.975 29.407 18.662 31.093 11.5 33.5 Z " fill="rgb(255,255,255)"/><clipPath id="_clipPath_WsqjUPeg66Eg0PR8xdLyzRRcoHUbxNkj"><path d=" M 11.5 33.5 L 17.5 23.5 C 23.583 20.083 28.927 15.427 33.5 9.5 C 33.67 12.519 32.68 15.196 30.5 17.5 C 39.313 16.813 47.547 23.809 48.5 33.5 C 49.095 40.903 44.439 46.58 36.5 50.5 L 28.5 43.5 C 32.577 44.019 37 39.625 37.5 35.5 C 37.75 31.5 35.063 29.875 32.5 28.5 C 24.975 29.407 18.662 31.093 11.5 33.5 Z " fill="rgb(255,255,255)"/></clipPath><g clip-path="url(#_clipPath_WsqjUPeg66Eg0PR8xdLyzRRcoHUbxNkj)"><mask id="_mask_9JJ9RT0ATsKEESIb5JuhJ34EsdeRJIRe"><path d=" M 11.5 33.5 L 17.5 23.5 C 23.583 20.083 28.927 15.427 33.5 9.5 C 33.67 12.519 32.68 15.196 30.5 17.5 C 39.313 16.813 47.547 23.809 48.5 33.5 C 49.095 40.903 44.439 46.58 36.5 50.5 L 28.5 43.5 C 32.577 44.019 37 39.625 37.5 35.5 C 37.75 31.5 35.063 29.875 32.5 28.5 C 24.975 29.407 18.662 31.093 11.5 33.5 Z " fill="white" stroke="none"/></mask><path d=" M 11.5 33.5 L 17.5 23.5 C 23.583 20.083 28.927 15.427 33.5 9.5 C 33.67 12.519 32.68 15.196 30.5 17.5 C 39.313 16.813 47.547 23.809 48.5 33.5 C 49.095 40.903 44.439 46.58 36.5 50.5 L 28.5 43.5 C 32.577 44.019 37 39.625 37.5 35.5 C 37.75 31.5 35.063 29.875 32.5 28.5 C 24.975 29.407 18.662 31.093 11.5 33.5 Z " fill="rgb(255,255,255)"/><path d=" M 11.5 33.5 L 17.5 23.5 C 23.583 20.083 28.927 15.427 33.5 9.5 C 33.67 12.519 32.68 15.196 30.5 17.5 C 39.313 16.813 47.547 23.809 48.5 33.5 C 49.095 40.903 44.439 46.58 36.5 50.5 L 28.5 43.5 C 32.577 44.019 37 39.625 37.5 35.5 C 37.75 31.5 35.063 29.875 32.5 28.5 C 24.975 29.407 18.662 31.093 11.5 33.5 Z " fill="rgb(255,255,255)" mask="url(#_mask_9JJ9RT0ATsKEESIb5JuhJ34EsdeRJIRe)" vector-effect="non-scaling-stroke" stroke-width="2" stroke="rgb(255,255,255)" stroke-opacity="100" stroke-linejoin="miter" stroke-linecap="square" stroke-miterlimit="3"/></g><ellipse vector-effect="non-scaling-stroke" cx="32.499999999999886" cy="26.999999999999982" rx="1" ry="2.5" fill="rgb(10,109,195)"/><rect x="19.543" y="20.477" width="2" height="8.374" transform="matrix(0.695,0.719,-0.719,0.695,23.999,-7.248)" fill="rgb(240,248,255)"/><path d=" M 20.388 24.375 C 21.838 23.024 23.474 22.42 24.038 23.025 C 24.602 23.631 23.883 25.22 22.432 26.571 C 20.982 27.921 19.346 28.526 18.782 27.92 C 18.218 27.315 18.937 25.726 20.388 24.375 Z " fill="rgb(11,109,195)"/><path d=" M 30.662 26.155 C 30.858 24.97 31.546 24.094 32.197 24.202 C 32.849 24.31 33.219 25.359 33.023 26.545 C 32.827 27.73 32.139 28.606 31.488 28.498 C 30.836 28.39 30.466 27.341 30.662 26.155 Z " fill="rgb(255,255,255)"/></g></g></svg>