<?xml version="1.0" encoding="UTF-8" standalone="no"?><!-- Generator: Gravit.io --><svg xmlns="http://www.w3.org/2000/svg" xmlns:xlink="http://www.w3.org/1999/xlink" style="isolation:isolate" viewBox="0 0 61 60" width="61pt" height="60pt"><defs><clipPath id="_clipPath_SKWZRiP9SsNe8QFKb5AJcdB8jHXMLsAr"><rect width="61" height="60"/></clipPath></defs><g clip-path="url(#_clipPath_SKWZRiP9SsNe8QFKb5AJcdB8jHXMLsAr)"><g><circle vector-effect="non-scaling-stroke" cx="30.5" cy="30" r="29.5" fill="rgb(244,210,60)"/><path d=" M 25 12.5 L 38 12.5 L 44 31.5 L 35 31.5 L 38 47.5 L 18 23.5 L 29 23.5 L 25 12.5 Z " fill="rgb(255,255,255)"/><clipPath id="_clipPath_8DCEM7MCkf8IB88lBpms4KXebfxhwmnU"><path d=" M 25 12.5 L 38 12.5 L 44 31.5 L 35 31.5 L 38 47.5 L 18 23.5 L 29 23.5 L 25 12.5 Z " fill="rgb(255,255,255)"/></clipPath><g clip-path="url(#_clipPath_8DCEM7MCkf8IB88lBpms4KXebfxhwmnU)"><mask id="_mask_zh8nfaiC3ughHlDwWQ7cxAZVxteNpu1Y"><path d=" M 25 12.5 L 38 12.5 L 44 31.5 L 35 31.5 L 38 47.5 L 18 23.5 L 29 23.5 L 25 12.5 Z " fill="white" stroke="none"/></mask><path d=" M 25 12.5 L 38 12.5 L 44 31.5 L 35 31.5 L 38 47.5 L 18 23.5 L 29 23.5 L 25 12.5 Z " fill="rgb(255,255,255)"/><path d=" M 25 12.5 L 38 12.5 L 44 31.5 L 35 31.5 L 38 47.5 L 18 23.5 L 29 23.5 L 25 12.5 Z " fill="rgb(255,255,255)" mask="url(#_mask_zh8nfaiC3ughHlDwWQ7cxAZVxteNpu1Y)" vector-effect="non-scaling-stroke" stroke-width="2" stroke="rgb(255,255,255)" stroke-opacity="100" stroke-linejoin="miter" stroke-linecap="square" stroke-miterlimit="3"/></g></g></g></svg>