<?xml version="1.0" encoding="UTF-8" standalone="no"?><!-- Generator: Gravit.io --><svg xmlns="http://www.w3.org/2000/svg" xmlns:xlink="http://www.w3.org/1999/xlink" style="isolation:isolate" viewBox="0 0 61 60" width="61pt" height="60pt"><defs><clipPath id="_clipPath_7A8u98uwfeM38i8mLYLbrOajVxaBjOV7"><rect width="61" height="60"/></clipPath></defs><g clip-path="url(#_clipPath_7A8u98uwfeM38i8mLYLbrOajVxaBjOV7)"><g><ellipse vector-effect="non-scaling-stroke" cx="30.5" cy="30" rx="29.166666666666742" ry="29.5" fill="rgb(255,157,85)"/><path d=" M 29.333 9.5 C 32.583 19.813 18.271 18.438 19.333 36.5 C 17.9 34.477 16.91 30.82 16.333 25.5 C 8.396 49.063 33.521 58.75 43.333 44.5 C 36.916 47.333 31.593 47.343 27.333 44.5 C 30.416 37.833 37.271 37.625 34.333 43.5 C 47.021 44.438 49.271 27.75 39.333 21.5 C 38.102 28.742 36.132 28.772 33.333 21.5 C 36.333 18 34.26 11.879 29.333 9.5 Z " fill="rgb(253,253,253)"/><circle vector-effect="non-scaling-stroke" cx="35.333333333333144" cy="23.500000000000057" r="4" fill="rgb(255,157,85)" stroke-width="1" stroke="rgb(255,157,85)" stroke-opacity="100" stroke-linejoin="miter" stroke-linecap="butt" stroke-miterlimit="3"/><ellipse vector-effect="non-scaling-stroke" cx="30.500000000000057" cy="39.43750000000006" rx="5.656250000000007" ry="5.500000000000014" fill="rgb(255,157,85)" stroke-width="1" stroke="rgb(255,157,85)" stroke-opacity="100" stroke-linejoin="miter" stroke-linecap="butt" stroke-miterlimit="3"/></g></g></svg>