<?xml version="1.0" encoding="UTF-8" standalone="no"?><!-- Generator: Gravit.io --><svg xmlns="http://www.w3.org/2000/svg" xmlns:xlink="http://www.w3.org/1999/xlink" style="isolation:isolate" viewBox="0 0 61 60" width="61pt" height="60pt"><defs><clipPath id="_clipPath_kV8gn3xYwzk7Fd1FFix3yDPCkaR4rh5T"><rect width="61" height="60"/></clipPath></defs><g clip-path="url(#_clipPath_kV8gn3xYwzk7Fd1FFix3yDPCkaR4rh5T)"><g><ellipse vector-effect="non-scaling-stroke" cx="30.5" cy="30.000000000000004" rx="30.000000000000057" ry="29.5" fill="rgb(137,170,227)"/><ellipse vector-effect="non-scaling-stroke" cx="23.999999999999886" cy="34.50000000000006" rx="12.500000000000057" ry="13" fill="rgb(255,255,255)"/><ellipse vector-effect="non-scaling-stroke" cx="34.49999999999977" cy="31.077061968049236" rx="3" ry="1.0770619680491809" fill="rgb(137,170,227)"/><path d=" M 33.802 34.96 C 33.851 34.688 34.732 34.618 35.768 34.804 C 36.805 34.99 37.606 35.361 37.558 35.633 C 37.509 35.905 36.628 35.974 35.592 35.788 C 34.555 35.603 33.753 35.231 33.802 34.96 Z " fill="rgb(137,170,227)"/><mask id="_mask_8jivfDg50V6eOZ1EAC5yMBrGwJ447Y5z"><path d=" M 31.464 31.827 C 36.62 32.528 40.988 31.153 44.539 27.657 C 42.093 34.041 38.393 36.433 33.413 34.792 L 31.464 31.827 Z " fill="white" stroke="none"/></mask><path d=" M 31.464 31.827 C 36.62 32.528 40.988 31.153 44.539 27.657 C 42.093 34.041 38.393 36.433 33.413 34.792 L 31.464 31.827 Z " fill="rgb(255,255,255)"/><path d=" M 31.464 31.827 C 36.62 32.528 40.988 31.153 44.539 27.657 C 42.093 34.041 38.393 36.433 33.413 34.792 L 31.464 31.827 Z " fill="rgb(255,255,255)" mask="url(#_mask_8jivfDg50V6eOZ1EAC5yMBrGwJ447Y5z)" vector-effect="non-scaling-stroke" stroke-width="2" stroke="rgb(255,255,255)" stroke-linejoin="miter" stroke-linecap="square" stroke-miterlimit="3"/><path d=" M 35.413 37.864 C 37.921 38.219 40.598 36.896 43.413 33.864 C 39.75 35.901 36.437 36.254 33.413 34.864 L 35.413 37.864 Z " fill="rgb(255,255,255)"/><path d=" M 23.313 22.062 C 36.063 22.841 42.756 18.049 47.513 9.727 C 47.32 24.838 41.811 31.938 30.953 30.994 L 23.313 22.062 Z " fill="rgb(255,255,255)"/></g></g></svg>