<?xml version="1.0" encoding="UTF-8" standalone="no"?><!-- Generator: Gravit.io --><svg xmlns="http://www.w3.org/2000/svg" xmlns:xlink="http://www.w3.org/1999/xlink" style="isolation:isolate" viewBox="0 0 61 60" width="61pt" height="60pt"><defs><clipPath id="_clipPath_9xW27fxXifLXkXaTicKLFv8taI8XkSSS"><rect width="61" height="60"/></clipPath></defs><g clip-path="url(#_clipPath_9xW27fxXifLXkXaTicKLFv8taI8XkSSS)"><g><circle vector-effect="non-scaling-stroke" cx="30.499999999999996" cy="29.999999999999996" r="29.500000000000025" fill="rgb(99,188,90)"/><path d=" M 16 42.5 L 21 37.5 L 20 25.5 L 23 34.5 L 29 28.5 L 28 20.5 L 31 26.5 L 40 18.5 L 34 28.5 L 41 29.5 L 32 31.5 L 28 38.5 L 39 39.5 L 26 41.5 L 23 46.5 C 32.698 51.342 42.375 45.813 46 36.5 C 48.188 28.063 47.51 18.51 45 11.5 C 33.837 11.523 24.524 14.209 17 19.5 C 11.063 24.313 10.568 34.64 16 42.5 Z " fill="rgb(255,255,255)"/><clipPath id="_clipPath_dqylnyQP7a2sGUMVlrkuQrEaLgQkSx3D"><path d=" M 16 42.5 L 21 37.5 L 20 25.5 L 23 34.5 L 29 28.5 L 28 20.5 L 31 26.5 L 40 18.5 L 34 28.5 L 41 29.5 L 32 31.5 L 28 38.5 L 39 39.5 L 26 41.5 L 23 46.5 C 32.698 51.342 42.375 45.813 46 36.5 C 48.188 28.063 47.51 18.51 45 11.5 C 33.837 11.523 24.524 14.209 17 19.5 C 11.063 24.313 10.568 34.64 16 42.5 Z " fill="rgb(255,255,255)"/></clipPath><g clip-path="url(#_clipPath_dqylnyQP7a2sGUMVlrkuQrEaLgQkSx3D)"><mask id="_mask_n2mfmRrTV7SEK4STcOcBIoUaQJtsbQLa"><path d=" M 16 42.5 L 21 37.5 L 20 25.5 L 23 34.5 L 29 28.5 L 28 20.5 L 31 26.5 L 40 18.5 L 34 28.5 L 41 29.5 L 32 31.5 L 28 38.5 L 39 39.5 L 26 41.5 L 23 46.5 C 32.698 51.342 42.375 45.813 46 36.5 C 48.188 28.063 47.51 18.51 45 11.5 C 33.837 11.523 24.524 14.209 17 19.5 C 11.063 24.313 10.568 34.64 16 42.5 Z " fill="white" stroke="none"/></mask><path d=" M 16 42.5 L 21 37.5 L 20 25.5 L 23 34.5 L 29 28.5 L 28 20.5 L 31 26.5 L 40 18.5 L 34 28.5 L 41 29.5 L 32 31.5 L 28 38.5 L 39 39.5 L 26 41.5 L 23 46.5 C 32.698 51.342 42.375 45.813 46 36.5 C 48.188 28.063 47.51 18.51 45 11.5 C 33.837 11.523 24.524 14.209 17 19.5 C 11.063 24.313 10.568 34.64 16 42.5 Z " fill="rgb(255,255,255)"/><path d=" M 16 42.5 L 21 37.5 L 20 25.5 L 23 34.5 L 29 28.5 L 28 20.5 L 31 26.5 L 40 18.5 L 34 28.5 L 41 29.5 L 32 31.5 L 28 38.5 L 39 39.5 L 26 41.5 L 23 46.5 C 32.698 51.342 42.375 45.813 46 36.5 C 48.188 28.063 47.51 18.51 45 11.5 C 33.837 11.523 24.524 14.209 17 19.5 C 11.063 24.313 10.568 34.64 16 42.5 Z " fill="rgb(255,255,255)" mask="url(#_mask_n2mfmRrTV7SEK4STcOcBIoUaQJtsbQLa)" vector-effect="non-scaling-stroke" stroke-width="2" stroke="rgb(255,255,255)" stroke-opacity="100" stroke-linejoin="miter" stroke-linecap="square" stroke-miterlimit="3"/></g></g></g></svg>