<?xml version="1.0" encoding="UTF-8" standalone="no"?><!-- Generator: Gravit.io --><svg xmlns="http://www.w3.org/2000/svg" xmlns:xlink="http://www.w3.org/1999/xlink" style="isolation:isolate" viewBox="0 0 61 60" width="61pt" height="60pt"><defs><clipPath id="_clipPath_KYfWqaOaHXOgRlzHcxeHOEgz7MKz6Rwb"><rect width="61" height="60"/></clipPath></defs><g clip-path="url(#_clipPath_KYfWqaOaHXOgRlzHcxeHOEgz7MKz6Rwb)"><g><ellipse vector-effect="non-scaling-stroke" cx="30.499999999999996" cy="30.000000000000004" rx="29.749999999999854" ry="29.5" fill="rgb(115,206,192)"/><path d=" M 42.271 49.794 L 30.909 41.746 L 19.671 49.835 L 21.08 36.254 L 8.224 30.766 L 20.995 25.232 L 19.377 11.656 L 30.739 19.703 L 41.977 11.614 L 40.568 25.196 L 53.424 30.683 L 40.653 36.217 L 42.271 49.794 Z " fill="rgb(255,255,255)"/><mask id="_mask_rUf8R5IDchX5V6ouRWyiXfW9vGnhBvKy" x="-200%" y="-200%" width="400%" height="400%"><rect x="-200%" y="-200%" width="400%" height="400%" style="fill:white;"/><line x1="30.5" y1="15.5" x2="30.824" y2="48.5" fill="black" stroke="none"/></mask><line x1="30.5" y1="15.5" x2="30.824" y2="48.5" mask="url(#_mask_rUf8R5IDchX5V6ouRWyiXfW9vGnhBvKy)" vector-effect="non-scaling-stroke" stroke-width="2" stroke="rgb(115,206,192)" stroke-opacity="100" stroke-linejoin="miter" stroke-linecap="square" stroke-miterlimit="3"/><mask id="_mask_vsnA8QnqlDyQI1k7HmeoopHepxljmhw9" x="-200%" y="-200%" width="400%" height="400%"><rect x="-200%" y="-200%" width="400%" height="400%" style="fill:white;"/><line x1="19.671" y1="37.5" x2="45.25" y2="22.5" fill="black" stroke="none"/></mask><line x1="19.671" y1="37.5" x2="45.25" y2="22.5" mask="url(#_mask_vsnA8QnqlDyQI1k7HmeoopHepxljmhw9)" vector-effect="non-scaling-stroke" stroke-width="2" stroke="rgb(115,206,192)" stroke-opacity="100" stroke-linejoin="miter" stroke-linecap="square" stroke-miterlimit="3"/><mask id="_mask_c55TjMkH95zqpcYajYE4mDn0OSeo7DxO" x="-200%" y="-200%" width="400%" height="400%"><rect x="-200%" y="-200%" width="400%" height="400%" style="fill:white;"/><line x1="19.671" y1="25.196" x2="43.25" y2="37.5" fill="black" stroke="none"/></mask><line x1="19.671" y1="25.196" x2="43.25" y2="37.5" mask="url(#_mask_c55TjMkH95zqpcYajYE4mDn0OSeo7DxO)" vector-effect="non-scaling-stroke" stroke-width="2" stroke="rgb(115,206,192)" stroke-opacity="100" stroke-linejoin="miter" stroke-linecap="square" stroke-miterlimit="3"/></g></g></svg>