<?xml version="1.0" encoding="UTF-8" standalone="no"?><!-- Generator: Gravit.io --><svg xmlns="http://www.w3.org/2000/svg" xmlns:xlink="http://www.w3.org/1999/xlink" style="isolation:isolate" viewBox="0 0 61 60" width="61pt" height="60pt"><defs><clipPath id="_clipPath_pUvx9WiYfdf8KK3PmYOVQe87W2BHKlLO"><rect width="61" height="60"/></clipPath></defs><g clip-path="url(#_clipPath_pUvx9WiYfdf8KK3PmYOVQe87W2BHKlLO)"><g><ellipse vector-effect="non-scaling-stroke" cx="30.499999999999996" cy="30.000000000000004" rx="30.000000000000025" ry="29.499999999999986" fill="rgb(250,113,121)"/><path d=" M 44.5 43.5 C 32.067 50.927 13.625 45.625 14.5 29.5 C 15.25 19.125 21.625 13.875 32.5 13.5 C 40.75 14 46.845 19.199 46.5 27.5 C 45.833 35.167 40.25 39.5 33.5 39.5 C 28.375 38.875 23.875 35 24.5 29.5 C 24.75 24.75 29 22.125 32.5 22.5 C 40.25 21.375 40.5 36.625 31.5 30.5 C 36 30.75 37.125 25.625 32.5 25.5 C 28.5 26.167 27.177 28.51 28.5 32.5 C 34.25 38.75 41.125 34.625 41.5 27.5 C 41.585 27.242 41.419 27.771 41.5 27.5 C 38.25 13.25 20 18.625 19.5 30.5 C 19.75 39.375 29.423 48.435 44.5 43.5 Z " fill="rgb(255,255,255)"/></g></g></svg>