<?xml version="1.0" encoding="UTF-8" standalone="no"?><!-- Generator: Gravit.io --><svg xmlns="http://www.w3.org/2000/svg" xmlns:xlink="http://www.w3.org/1999/xlink" style="isolation:isolate" viewBox="0 0 61 60" width="61pt" height="60pt"><defs><clipPath id="_clipPath_OzWn0nVLEKLqpEZlJOr9xy984w2BmT29"><rect width="61" height="60"/></clipPath></defs><g clip-path="url(#_clipPath_OzWn0nVLEKLqpEZlJOr9xy984w2BmT29)"><g><circle vector-effect="non-scaling-stroke" cx="30.499999999999996" cy="29.999999999999996" r="29.500000000000025" fill="rgb(197,183,140)"/><mask id="_mask_S3wSoDO6FYX0lhQ0p5QZOq9N08Kr28ch" x="-200%" y="-200%" width="400%" height="400%"><rect x="-200%" y="-200%" width="400%" height="400%" style="fill:white;"/><path d=" M 44 14.5 L 24 14.5 L 11 30.5 L 11 38.5 L 32 44.5 L 49 32.5 L 44 14.5 Z " fill="black" stroke="none"/></mask><path d=" M 44 14.5 L 24 14.5 L 11 30.5 L 11 38.5 L 32 44.5 L 49 32.5 L 44 14.5 Z " fill="rgb(255,255,255)"/><path d=" M 44 14.5 L 24 14.5 L 11 30.5 L 11 38.5 L 32 44.5 L 49 32.5 L 44 14.5 Z " fill="rgb(255,255,255)" mask="url(#_mask_S3wSoDO6FYX0lhQ0p5QZOq9N08Kr28ch)" vector-effect="non-scaling-stroke" stroke-width="2" stroke="rgb(255,255,255)" stroke-opacity="100" stroke-linejoin="miter" stroke-linecap="square" stroke-miterlimit="3"/><mask id="_mask_JZv2ECQbK6P70j7WcmVohhiTER1mJV5a" x="-200%" y="-200%" width="400%" height="400%"><rect x="-200%" y="-200%" width="400%" height="400%" style="fill:white;"/><path d=" M 42 13.5 L 40 29.5 L 45 37.5 L 40 29.5 L 20 42.5" fill="black" stroke="none"/></mask><path d=" M 42 13.5 L 40 29.5 L 45 37.5 L 40 29.5 L 20 42.5" fill="none"/><path d=" M 42 13.5 L 40 29.5 L 45 37.5 L 40 29.5 L 20 42.5" fill="none" mask="url(#_mask_JZv2ECQbK6P70j7WcmVohhiTER1mJV5a)" vector-effect="non-scaling-stroke" stroke-width="3" stroke="rgb(197,183,140)" stroke-opacity="100" stroke-linejoin="miter" stroke-linecap="square" stroke-miterlimit="3"/></g></g></svg>